<?xml version="1.0" standalone="yes"?>
<svg xmlns="http://www.w3.org/2000/svg" width="512" height="512">
<path style="fill:#ffffff; stroke:none;" d="M0 0L0 90L1 90C3.90582 54.4234 39.1225 27.4117 73 25.0895C126.448 21.4258 181.412 25 235 25C302.45 25 370.622 22.0887 438 25.0394C472.236 26.5387 508.087 54.3403 511 90L512 90L512 0L0 0z"/>
<path style="fill:#010101; stroke:none;" d="M100 402C93.2721 421.868 91.1164 444.415 87 465C85.6711 471.645 82.2616 481.768 90.044 485.817C97.5847 489.74 108.594 480.473 115 477.248C137.147 466.096 159.189 454.488 181 442.691C199.221 432.837 217.591 423.243 236 413.742C243.656 409.79 252.231 402.966 261 402.105C308.003 397.49 357.745 402 405 402C432.873 402 461.114 403.295 484 384.535C513.696 360.193 512 327.79 512 293L512 116C512 86.9875 508.07 61.6036 484 42.0949C454.465 18.1569 412.414 25 377 25L142 25C107.252 25 64.6229 17.8764 34 37.6991C-10.679 66.6204 0 124.393 0 170L0 296C0 335.468 1.68849 374.692 43 394.11C60.9475 402.546 80.6381 402 100 402z"/>
<path style="fill:#ffffff; stroke:none;" d="M107 460C120.225 456.19 132.856 447.189 145 440.781C167.62 428.846 190.631 417.539 213 405.139C225.141 398.409 241.192 386.319 255 384.213C270.305 381.879 287.512 384 303 384L400 384C423.006 384 449.158 386.978 469 372.957C494.867 354.677 494 328.31 494 300L494 223L494 121C494 97.6464 494.205 75.1637 474.985 58.3001C448.357 34.9362 404.707 43 372 43L122 43C86.1216 43 44.1137 37.3911 24.3202 75C13.7955 94.9977 18 121.116 18 143L18 284C18 306.077 13.6116 333.009 24.8758 353C36.757 374.086 57.854 382.947 81 383.961C89.8087 384.346 111.194 379.881 117.347 387.228C121.978 392.758 118.245 401.772 117 408C113.593 425.036 108.378 442.684 107 460M0 336L0 512L512 512L512 336L511 336C509.587 368.411 477.36 395.817 447 400.561C429.653 403.271 411.513 402 394 402L306 402C290.926 402 272.729 399.206 258 402.39C244.069 405.402 229.552 416.596 217 423.219C188.719 438.141 160.504 453.266 132 467.756C122.24 472.718 112.718 478.173 103 483.216C98.605 485.497 93.5613 488.142 89.1088 484.562C82.2655 479.06 86.3718 469.143 87.8002 462C91.7873 442.062 94.9073 421.684 100 402C65.2559 402 32.9149 397.707 12.0787 366C5.78386 356.421 4.50073 346.022 0 336z"/>
</svg>
